<?xml version="1.0" encoding="utf-8"?>
<!-- Generator: Adobe Illustrator 22.0.0, SVG Export Plug-In . SVG Version: 6.00 Build 0)  -->
<svg version="1.1" id="Layer_1" xmlns="http://www.w3.org/2000/svg" xmlns:xlink="http://www.w3.org/1999/xlink" x="0px" y="0px"
	 viewBox="0 0 3000 1000" style="enable-background:new 0 0 3000 1000;" xml:space="preserve">
<style type="text/css">
	.st0{fill:#790F35;}
	.st1{fill:#FC273F;}
	.st2{fill:#E6E8ED;}
	.st3{fill:#4244D5;}
	.st4{fill:#4682FA;}
</style>
<g>
	<path class="st0" d="M2875.8,716.8"/>
</g>
<rect x="2000" y="0" class="st1" width="1000" height="1000"/>
<polygon class="st2" points="2500,0 2500,500 3000,0 "/>
<polygon class="st2" points="2000,0 2000,500 2500,0 "/>
<polygon class="st3" points="2500,500 2500,1000 3000,500 "/>
<polygon class="st3" points="2000,500 2000,1000 2500,500 "/>
<rect y="0" class="st1" width="1000" height="1000"/>
<polygon class="st3" points="500,500 0,1000 0,500 500,0 "/>
<polygon class="st3" points="1000,500 500,1000 500,500 1000,0 "/>
<polygon class="st2" points="500,0 500,500 1000,0 "/>
<polygon class="st2" points="0,0 0,500 500,0 "/>
<rect x="1000" y="0" class="st3" width="1000" height="1000"/>
<polygon class="st1" points="1000,500 1500,1000 1500,500 1000,0 "/>
<polygon class="st4" points="2000,500 1500,1000 1500,500 2000,0 "/>
<polygon class="st2" points="1500,0 1500,500 2000,0 "/>
<polygon class="st2" points="1500,0 1000,0 1500,500 "/>
</svg>
